<svg width="435" height="386" viewBox="0 0 435 386" fill="none" xmlns="http://www.w3.org/2000/svg">
<path d="M432.3 200.28C432.256 200.224 432.252 200.176 432.2 200.12L404.644 169.496C403.989 168.766 403.187 168.182 402.291 167.783C401.395 167.383 400.425 167.176 399.444 167.176H324.748V37.336C324.741 35.6489 324.12 34.0222 323 32.76C322.976 32.728 322.976 32.688 322.948 32.656L296.508 3.272C295.853 2.54214 295.051 1.95838 294.155 1.55868C293.259 1.15898 292.289 0.952272 291.308 0.951996H142.692C141.711 0.952272 140.741 1.15898 139.845 1.55868C138.949 1.95838 138.148 2.54214 137.492 3.272L111.052 32.656C111.02 32.692 111.02 32.732 110.992 32.768C109.879 34.0298 109.262 35.6532 109.256 37.336V167.176H34.556C33.575 167.176 32.605 167.383 31.7092 167.783C30.8133 168.182 30.0115 168.766 29.356 169.496L1.80003 200.12C1.76403 200.16 1.76403 200.204 1.73203 200.244C0.623389 201.505 0.00946459 203.125 0.00402832 204.804V378.048C0.00402832 379.905 0.741525 381.685 2.05428 382.998C3.36703 384.31 5.14751 385.048 7.00403 385.048H427.004C428.861 385.048 430.641 384.31 431.954 382.998C433.267 381.685 434.004 379.905 434.004 378.048V204.804C433.997 203.14 433.392 201.535 432.3 200.28V200.28ZM411.284 197.804H355.084L345.736 181.18H396.328L411.284 197.804ZM300.008 211.8H344.008V241L325.248 231.248C324.251 230.73 323.144 230.459 322.02 230.459C320.896 230.459 319.789 230.73 318.792 231.248L300.008 241V211.8ZM90.008 211.8H134.008V241L115.248 231.248C114.251 230.73 113.144 230.459 112.02 230.459C110.896 230.459 109.789 230.73 108.792 231.248L90.008 241V211.8ZM196.2 44.336H237.8V71.612L220.2 62.468C219.203 61.9498 218.096 61.6793 216.972 61.6793C215.848 61.6793 214.741 61.9498 213.744 62.468L196.144 71.612L196.2 44.336ZM182.2 44.336V83.136C182.2 84.3385 182.51 85.5208 183.099 86.5689C183.689 87.6169 184.538 88.4954 185.566 89.1197C186.594 89.7439 187.765 90.0929 188.967 90.1328C190.169 90.1728 191.361 89.9025 192.428 89.348L217 76.572L241.588 89.372C242.656 89.9235 243.848 90.1908 245.049 90.148C246.25 90.1052 247.42 89.7538 248.447 89.1277C249.473 88.5015 250.32 87.6217 250.907 86.573C251.495 85.5243 251.802 84.342 251.8 83.14V44.34H310.748V196.564H123.252V44.336H182.2ZM329.688 181.176L339.02 197.8H324.748V181.18L329.688 181.176ZM302.048 30.336H248.912L240.26 14.952H288.2L302.048 30.336ZM224.2 14.956L232.852 30.34H201.152L209.8 14.956H224.2ZM145.8 14.956H193.74L185.088 30.34H131.968L145.8 14.956ZM109.252 197.8H94.98L104.328 181.176H109.256L109.252 197.8ZM37.652 181.176H88.264L78.916 197.8H22.716L37.652 181.176ZM14 211.8H76V252.54C75.9999 253.743 76.3096 254.925 76.8992 255.973C77.4888 257.021 78.3384 257.899 79.3663 258.524C80.3941 259.148 81.5654 259.497 82.7672 259.537C83.9691 259.577 85.161 259.307 86.228 258.752L111.988 245.36L137.748 258.752C138.815 259.307 140.007 259.577 141.209 259.537C142.411 259.497 143.582 259.148 144.61 258.524C145.638 257.899 146.487 257.021 147.077 255.973C147.666 254.925 147.976 253.743 147.976 252.54V211.8H209.976V371.044H13.976L14 211.8ZM420 371.044H224V211.8H286V252.54C286 253.743 286.31 254.925 286.899 255.973C287.489 257.021 288.338 257.899 289.366 258.524C290.394 259.148 291.565 259.497 292.767 259.537C293.969 259.577 295.161 259.307 296.228 258.752L321.988 245.36L347.748 258.752C348.815 259.307 350.007 259.577 351.209 259.537C352.411 259.497 353.582 259.148 354.61 258.524C355.638 257.899 356.487 257.021 357.077 255.973C357.666 254.925 357.976 253.743 357.976 252.54V211.8H419.976L420 371.044Z" fill="#AAAAAA"/>
</svg>
