<svg width="50" height="50" viewBox="0 0 50 50" fill="none" xmlns="http://www.w3.org/2000/svg">
<path d="M47.0215 36.7187C47.0215 44.042 41.1074 50 33.8379 50C26.5684 50 20.6543 44.042 20.6543 36.7187C20.6543 33.2227 22.1846 29.416 23.8926 25.9766H39.6973C41.0312 25.9766 42.2109 25.3047 42.916 24.2812C42.9395 24.3174 42.9609 24.3545 42.9814 24.3936C44.9795 28.21 47.0215 32.6592 47.0215 36.7187Z" fill="#3BB54A"/>
<path d="M47.0215 36.7187C47.0215 44.0088 41.1602 49.9463 33.9355 49.999V25.9766H39.6973C41.0312 25.9766 42.2109 25.3047 42.916 24.2812C42.9395 24.3174 42.9609 24.3545 42.9814 24.3936C44.9795 28.21 47.0215 32.6592 47.0215 36.7187Z" fill="#0E9347"/>
<path d="M34.668 35.2539H33.2031C32.7992 35.2539 32.4707 34.9254 32.4707 34.5215C32.4707 34.1176 32.7992 33.7891 33.2031 33.7891H36.8652C37.6742 33.7891 38.3301 33.1332 38.3301 32.3242C38.3301 31.5152 37.6742 30.8594 36.8652 30.8594H35.4004C35.4004 30.0504 34.7445 29.3945 33.9355 29.3945C33.1266 29.3945 32.4707 30.0504 32.4707 30.8594V30.9331C30.8012 31.2733 29.541 32.7529 29.541 34.5215C29.541 36.5408 31.1838 38.1836 33.2031 38.1836H34.668C35.0719 38.1836 35.4004 38.5121 35.4004 38.916C35.4004 39.3199 35.0719 39.6484 34.668 39.6484H31.0059C30.1969 39.6484 29.541 40.3043 29.541 41.1133C29.541 41.9223 30.1969 42.5781 31.0059 42.5781H32.4707C32.4707 43.3871 33.1266 44.043 33.9355 44.043C34.7445 44.043 35.4004 43.3871 35.4004 42.5781V42.5044C37.0699 42.1642 38.3301 40.6846 38.3301 38.916C38.3301 36.8967 36.6873 35.2539 34.668 35.2539Z" fill="white"/>
<path d="M38.3301 38.916C38.3301 40.6846 37.0703 42.1641 35.4004 42.5049V42.5781C35.4004 43.3867 34.7441 44.043 33.9355 44.043V39.6484H34.668C35.0723 39.6484 35.4004 39.3203 35.4004 38.916C35.4004 38.5117 35.0723 38.1836 34.668 38.1836H33.9355V35.2539H34.668C36.6875 35.2539 38.3301 36.8965 38.3301 38.916Z" fill="white"/>
<path d="M36.8652 33.7891H33.9355V29.3945C34.7441 29.3945 35.4004 30.0508 35.4004 30.8594H36.8652C37.6738 30.8594 38.3301 31.5156 38.3301 32.3242C38.3301 33.1328 37.6738 33.7891 36.8652 33.7891Z" fill="white"/>
<path d="M44.0918 13.2812V22.0703C44.0918 24.4932 42.1201 26.4648 39.6973 26.4648H18.2578V5.95703H18.7461L22.7715 3.27344C23.0117 3.11328 23.2949 3.02734 23.584 3.02734H26.1006L28.9502 9.375H41.709C43.125 10.1074 44.0918 11.5879 44.0918 13.2812Z" fill="#FFE27A"/>
<path d="M44.0918 13.2812V22.0703C44.0918 24.4932 42.1201 26.4648 39.6973 26.4648H33.9355V9.375H41.709C43.125 10.1074 44.0918 11.5879 44.0918 13.2812Z" fill="#F6B545"/>
<path d="M18.7461 5.95703H4.44336C3.63437 5.95703 2.97852 6.61289 2.97852 7.42188V30.8594C2.97852 31.6684 3.63437 32.3242 4.44336 32.3242H15.3281C15.7166 32.3242 16.0892 32.1699 16.3639 31.8952L18.317 29.9421C18.5917 29.6674 18.7461 29.2947 18.7461 28.9062V5.95703Z" fill="#70B7E5"/>
<path d="M42.4971 2.06738L39.1973 9.375H28.4786L25.1788 2.06738C24.7426 1.10371 25.4468 0 26.5137 0H41.1621C42.2288 0 42.9333 1.10361 42.4971 2.06738Z" fill="#3BB54A"/>
<path d="M42.4971 2.06738L39.1973 9.375H33.9355V0H41.1621C42.2285 0 42.9336 1.10352 42.4971 2.06738Z" fill="#0E9347"/>
<path d="M43.8398 11.8164H25.0488C24.2402 11.8164 23.584 11.1602 23.584 10.3516C23.584 9.54297 24.2402 8.88672 25.0488 8.88672H39.6973C41.6064 8.88672 43.2363 10.1113 43.8398 11.8164Z" fill="#FFE27A"/>
<path d="M43.8398 11.8164H33.9355V8.88672H39.6973C41.6064 8.88672 43.2363 10.1113 43.8398 11.8164Z" fill="#F6B545"/>
</svg>
