<svg width="18" height="14" viewBox="0 0 18 14" fill="none" xmlns="http://www.w3.org/2000/svg">
<path d="M14.8182 6.81818C14.8182 6.23953 15.0481 5.68457 15.4572 5.2754C15.8664 4.86623 16.4213 4.63636 17 4.63636V1H1V4.63636C1.57865 4.63636 2.13361 4.86623 2.54278 5.2754C2.95195 5.68457 3.18182 6.23953 3.18182 6.81818C3.18182 7.39684 2.95195 7.95179 2.54278 8.36096C2.13361 8.77013 1.57865 9 1 9V12.6364H17V9C16.4213 9 15.8664 8.77013 15.4572 8.36096C15.0481 7.95179 14.8182 7.39684 14.8182 6.81818Z" stroke="#EE0033" stroke-width="1.4" stroke-miterlimit="10" stroke-linecap="round"/>
<path d="M6.09094 5.36365H11.9091" stroke="#EE0033" stroke-width="1.4" stroke-miterlimit="10" stroke-linecap="round"/>
<path d="M6.09094 8.27271H11.9091" stroke="#EE0033" stroke-width="1.4" stroke-miterlimit="10" stroke-linecap="round"/>
</svg>
