<svg width="18" height="18" viewBox="0 0 18 18" fill="none" xmlns="http://www.w3.org/2000/svg">
<path fill-rule="evenodd" clip-rule="evenodd" d="M9 17C13.4183 17 17 13.4183 17 9C17 4.58172 13.4183 1 9 1C4.58172 1 1 4.58172 1 9C1 13.4183 4.58172 17 9 17Z" stroke="#44494D" stroke-width="1.4" stroke-linecap="round" stroke-linejoin="round"/>
<path fill-rule="evenodd" clip-rule="evenodd" d="M8.99999 12.2C10.7673 12.2 12.2 10.7673 12.2 8.99999C12.2 7.23268 10.7673 5.79999 8.99999 5.79999C7.23268 5.79999 5.79999 7.23268 5.79999 8.99999C5.79999 10.7673 7.23268 12.2 8.99999 12.2Z" stroke="#44494D" stroke-width="1.4" stroke-linecap="round" stroke-linejoin="round"/>
<path d="M3.34399 3.34399L6.73599 6.73599" stroke="#44494D" stroke-width="1.4" stroke-linecap="round" stroke-linejoin="round"/>
<path d="M11.264 11.264L14.656 14.656" stroke="#44494D" stroke-width="1.4" stroke-linecap="round" stroke-linejoin="round"/>
<path d="M11.264 6.73599L14.656 3.34399" stroke="#44494D" stroke-width="1.4" stroke-linecap="round" stroke-linejoin="round"/>
<path d="M11.264 6.73599L14.088 3.91199" stroke="#44494D" stroke-width="1.4" stroke-linecap="round" stroke-linejoin="round"/>
<path d="M3.34399 14.656L6.73599 11.264" stroke="#44494D" stroke-width="1.4" stroke-linecap="round" stroke-linejoin="round"/>
</svg>
