<svg width="17" height="18" viewBox="0 0 17 18" fill="none" xmlns="http://www.w3.org/2000/svg">
<path fill-rule="evenodd" clip-rule="evenodd" d="M8.8618 1.32725L14.6372 4.23634C15.1279 4.48196 15.4382 4.9862 15.4385 5.53816V12.4691C15.4382 13.021 15.1279 13.5253 14.6372 13.7709L8.8618 16.68C8.45509 16.885 7.97626 16.885 7.56955 16.68L1.79415 13.7709C1.30396 13.5221 0.996215 13.0147 1.00004 12.4618V5.53816C1.00033 4.9862 1.31071 4.48196 1.80137 4.23634L7.57677 1.32725C7.98151 1.12464 8.45706 1.12464 8.8618 1.32725Z" stroke="#44494D" stroke-width="1.6" stroke-linecap="round" stroke-linejoin="round"/>
<path d="M1.23108 4.75269L8.21931 8.27269L15.2076 4.75269" stroke="#44494D" stroke-width="1.6" stroke-linecap="round" stroke-linejoin="round"/>
<path d="M8.2193 16.8254V8.27271" stroke="#44494D" stroke-width="1.6" stroke-linecap="round" stroke-linejoin="round"/>
<path d="M4.60968 2.81818L11.8289 6.45454" stroke="#44494D" stroke-width="1.6" stroke-linecap="round" stroke-linejoin="round"/>
</svg>
