<svg width="25" height="22" viewBox="0 0 25 22" fill="none" xmlns="http://www.w3.org/2000/svg">
<path d="M24.9766 6.84219L23.4141 0.592187C23.3281 0.24375 23.0141 0 22.6562 0H2.34375C1.98594 0 1.67188 0.24375 1.58594 0.592187L0.0234375 6.84219C0.0078125 6.90313 0 6.96719 0 7.03125C0 8.34062 0.620313 9.49531 1.5625 10.2047V21.0938C1.5625 21.525 1.9125 21.875 2.34375 21.875H10.1562C10.5875 21.875 10.9375 21.525 10.9375 21.0938V15.625H14.0625V21.0938C14.0625 21.525 14.4125 21.875 14.8438 21.875H22.6562C23.0875 21.875 23.4375 21.525 23.4375 21.0938V10.2047C24.3797 9.49531 25 8.34062 25 7.03125C25 6.96719 24.9922 6.90313 24.9766 6.84219ZM21.875 20.3125H15.625V14.8438C15.625 14.4125 15.275 14.0625 14.8438 14.0625H10.1562C9.725 14.0625 9.375 14.4125 9.375 14.8438V20.3125H3.125V10.875C3.31719 10.9078 3.51094 10.9375 3.71094 10.9375C4.90156 10.9375 5.96094 10.3453 6.64062 9.42656C7.32031 10.3453 8.37969 10.9375 9.57031 10.9375C10.7609 10.9375 11.8203 10.3453 12.5 9.42656C13.1797 10.3453 14.2391 10.9375 15.4297 10.9375C16.6203 10.9375 17.6797 10.3453 18.3594 9.42656C19.0391 10.3453 20.0984 10.9375 21.2891 10.9375C21.4891 10.9375 21.6828 10.9078 21.875 10.875V20.3125ZM21.2891 9.375C20.1047 9.375 19.1406 8.32344 19.1406 7.03125C19.1406 6.6 18.7906 6.25 18.3594 6.25C17.9281 6.25 17.5781 6.6 17.5781 7.03125C17.5781 8.32344 16.6141 9.375 15.4297 9.375C14.2453 9.375 13.2812 8.32344 13.2812 7.03125C13.2812 6.6 12.9312 6.25 12.5 6.25C12.0688 6.25 11.7188 6.6 11.7188 7.03125C11.7188 8.32344 10.7547 9.375 9.57031 9.375C8.38594 9.375 7.42188 8.32344 7.42188 7.03125C7.42188 6.6 7.07188 6.25 6.64062 6.25C6.20937 6.25 5.85938 6.6 5.85938 7.03125C5.85938 8.32344 4.89531 9.375 3.71094 9.375C2.55469 9.375 1.60781 8.37187 1.56406 7.12188L2.95469 1.5625H22.0469L23.4375 7.12188C23.3922 8.37187 22.4453 9.375 21.2891 9.375Z" fill="black"/>
</svg>
