<svg width="20" height="20" viewBox="0 0 20 20" fill="none" xmlns="http://www.w3.org/2000/svg">
<path d="M19.7792 3.15229C19.4835 2.85585 19.0044 2.85506 18.7077 3.15026L12.9555 8.87927L11.2931 7.21689C10.9971 6.92119 10.5178 6.92092 10.2219 7.21689L3.47946 13.9593C3.18348 14.255 3.18348 14.7348 3.47946 15.0306C3.62719 15.1785 3.82114 15.2525 4.01508 15.2525C4.20875 15.2525 4.40297 15.1785 4.55067 15.0306L10.7575 8.824L12.4189 10.4851C12.7146 10.7808 13.1926 10.7811 13.489 10.4863L19.7769 4.22373C20.0734 3.92854 20.0744 3.44874 19.7792 3.15229Z" fill="#EE0033"/>
<path d="M19.2171 17.5757H1.51515V1.66667C1.51515 1.24823 1.17601 0.909092 0.757577 0.909092C0.33914 0.909092 0 1.24823 0 1.66667V18.3333C0 18.7518 0.33914 19.0909 0.757577 19.0909H19.2171C19.6356 19.0909 19.9747 18.7518 19.9747 18.3333C19.9747 17.9149 19.6356 17.5757 19.2171 17.5757Z" fill="#EE0033"/>
<path d="M19.2423 2.90406H13.5606C13.1421 2.90406 12.803 3.2432 12.803 3.66164C12.803 4.08008 13.1421 4.41922 13.5606 4.41922H18.4848V9.3437C18.4848 9.76186 18.8239 10.1013 19.2424 10.1013C19.6608 10.1013 19.9999 9.76186 19.9999 9.34343V3.66164C19.9999 3.2432 19.6608 2.90406 19.2423 2.90406Z" fill="#EE0033"/>
</svg>
