<svg width="20" height="20" viewBox="0 0 20 20" fill="none" xmlns="http://www.w3.org/2000/svg">
<path fill-rule="evenodd" clip-rule="evenodd" d="M0.831164 16.3507H19.1168C19.6155 16.3507 19.9479 16.0182 19.9479 15.5195V3.88323C19.9479 3.38453 19.6155 3.05206 19.1168 3.05206H0.831164C0.332466 3.05206 0 3.38453 0 3.88323V15.5195C0 16.0182 0.332466 16.3507 0.831164 16.3507ZM18.2856 14.6884H1.66231V4.71439H18.2856V14.6884Z" fill="#EE0033"/>
<path fill-rule="evenodd" clip-rule="evenodd" d="M6.64923 9.70136C6.64923 11.5299 8.14533 13.026 9.97389 13.026C11.8024 13.026 13.2985 11.5299 13.2985 9.70136C13.2985 7.8728 11.8024 6.37671 9.97389 6.37671C8.14533 6.37671 6.64923 7.8728 6.64923 9.70136ZM8.31149 9.70137C8.31149 8.78709 9.05954 8.03904 9.97382 8.03904C10.8881 8.03904 11.6361 8.78709 11.6361 9.70137C11.6361 10.6157 10.8881 11.3637 9.97382 11.3637C9.05954 11.3637 8.31149 10.6157 8.31149 9.70137Z" fill="#EE0033"/>
<path d="M1.66232 8.03904C1.24674 8.03904 0.914274 7.95592 0.498692 7.87281C0.0831101 7.70657 -0.0831226 7.20788 0.0831101 6.79229C0.249343 6.37671 0.748041 6.12736 1.16362 6.2936C1.32986 6.37671 1.49609 6.37671 1.66232 6.37671C2.5766 6.37671 3.32465 5.62866 3.32465 4.71438C3.32465 4.54815 3.32465 4.38192 3.24153 4.21569C3.0753 3.71699 3.24153 3.30141 3.74023 3.13517C4.15581 2.96894 4.65451 3.13517 4.82074 3.55076C4.90386 3.96634 4.98698 4.2988 4.98698 4.71438C4.98698 6.54294 3.49088 8.03904 1.66232 8.03904Z" fill="#EE0033"/>
<path d="M18.2856 8.03905C16.457 8.03905 14.9609 6.54296 14.9609 4.7144C14.9609 4.29882 15.0441 3.96635 15.1272 3.55077C15.2934 3.13519 15.7921 2.88584 16.2077 3.05207C16.6233 3.2183 16.8726 3.717 16.7064 4.13258C16.6233 4.38193 16.6233 4.54816 16.6233 4.7144C16.6233 5.62868 17.3713 6.37672 18.2856 6.37672C18.4518 6.37672 18.6181 6.37672 18.7843 6.29361C19.1999 6.12738 19.6986 6.37672 19.8648 6.79231C20.031 7.20789 19.7817 7.70659 19.3661 7.87282C19.0336 7.95594 18.7012 8.03905 18.2856 8.03905Z" fill="#EE0033"/>
<path d="M3.98958 16.3507C3.90646 16.3507 3.82334 16.3507 3.65711 16.2676C3.24153 16.1013 2.99218 15.6026 3.15841 15.1871C3.32464 15.0208 3.32464 14.8546 3.32464 14.6884C3.32464 13.7741 2.5766 13.026 1.66232 13.026C1.49608 13.026 1.32985 13.026 1.16362 13.1092C0.748037 13.2754 0.249338 13.026 0.0831056 12.6105C-0.0831271 12.1949 0.166222 11.6962 0.581804 11.5299C0.914269 11.4468 1.24673 11.3637 1.66232 11.3637C3.49088 11.3637 4.98697 12.8598 4.98697 14.6884C4.98697 15.1039 4.90386 15.4364 4.82074 15.852C4.65451 16.1845 4.32204 16.3507 3.98958 16.3507Z" fill="#EE0033"/>
<path d="M15.9583 16.3507C15.6259 16.3507 15.2934 16.1845 15.2103 15.852C15.0441 15.4364 14.9609 15.1039 14.9609 14.6884C14.9609 12.8598 16.457 11.3637 18.2856 11.3637C18.7012 11.3637 19.0336 11.4468 19.4492 11.5299C19.8648 11.6962 20.1142 12.1949 19.9479 12.6105C19.7817 13.026 19.283 13.2754 18.8674 13.1092C18.6181 13.026 18.4518 13.026 18.2856 13.026C17.3713 13.026 16.6233 13.7741 16.6233 14.6884C16.6233 14.8546 16.6233 15.0208 16.7064 15.1871C16.8726 15.6026 16.6233 16.1013 16.2077 16.2676C16.1246 16.3507 16.0415 16.3507 15.9583 16.3507Z" fill="#EE0033"/>
</svg>
