<svg width="50" height="50" viewBox="0 0 50 50" fill="none" xmlns="http://www.w3.org/2000/svg">
<path d="M38.1836 16.5504V1.46484H25H11.8164V16.5504C12.1136 16.8219 17.6758 19.4354 17.6758 25.0977C17.6758 30.8544 12.1095 33.3771 11.8164 33.6449V48.5352H25H38.1836V33.6449C37.8864 33.3733 32.3242 30.7598 32.3242 25.0977C32.3242 19.3407 37.8905 16.8181 38.1836 16.5504Z" fill="#E6F7FF"/>
<path d="M38.1836 33.6449C37.8864 33.3733 32.3242 30.7598 32.3242 25.0977C32.3242 19.3407 37.8905 16.8181 38.1836 16.5504V1.46484H25V48.5352H38.1836V33.6449Z" fill="#CCE6FF"/>
<path d="M8.88672 47.0703V50H25H41.1133V47.0703H25H8.88672Z" fill="#333E73"/>
<path d="M25 0H8.88672V2.92969H25H41.1133V0H25Z" fill="#333E73"/>
<path d="M25 47.0703H41.1133V50H25V47.0703Z" fill="#1F2859"/>
<path d="M25 0H41.1133V2.92969H25V0Z" fill="#1F2859"/>
<path d="M25 8.88672H17.6758V13.4304L18.1765 13.8681C21.4853 16.7606 23.5352 19.4028 23.5352 23.6328H25H26.4648C26.4648 19.4028 28.5147 16.7606 31.8235 13.8682L32.3242 13.4305V8.88672H25Z" fill="#FFEA80"/>
<path d="M26.4648 29.4922V26.5625H25H23.5352V29.4922H25H26.4648Z" fill="#FFEA80"/>
<path d="M25 44.1406C28.236 44.1406 30.8594 41.5173 30.8594 38.2812C30.8594 35.0452 28.236 32.4219 25 32.4219C21.764 32.4219 19.1406 35.0452 19.1406 38.2812C19.1406 41.5173 21.764 44.1406 25 44.1406Z" fill="#FFEA80"/>
<path d="M31.8235 13.8682L32.3242 13.4305V8.88672H25V23.6328H26.4648C26.4648 19.4028 28.5147 16.7606 31.8235 13.8682Z" fill="#FFCC33"/>
<path d="M25 26.5625H26.4648V29.4922H25V26.5625Z" fill="#FFCC33"/>
<path d="M30.8594 38.2812C30.8594 35.0497 28.2315 32.4219 25 32.4219V44.1406C28.2315 44.1406 30.8594 41.5128 30.8594 38.2812Z" fill="#FFCC33"/>
<path d="M25 13.5714C25.3676 13.5714 25.6667 13.8598 25.6667 14.2143H27C27 13.3762 26.4426 12.6617 25.6667 12.3963V11H24.3333V12.3963C23.5574 12.6617 23 13.3762 23 14.2143C23 15.2777 23.8972 16.1429 25 16.1429C25.3676 16.1429 25.6667 16.4312 25.6667 16.7857C25.6667 17.1402 25.3676 17.4286 25 17.4286C24.6324 17.4286 24.3333 17.1402 24.3333 16.7857H23C23 17.6238 23.5574 18.3383 24.3333 18.6037V20H25.6667V18.6037C26.4426 18.3383 27 17.6238 27 16.7857C27 15.7223 26.1028 14.8571 25 14.8571C24.6324 14.8571 24.3333 14.5688 24.3333 14.2143C24.3333 13.8598 24.6324 13.5714 25 13.5714Z" fill="#0E9347"/>
</svg>
