<svg width="22" height="18" viewBox="0 0 22 18" fill="none" xmlns="http://www.w3.org/2000/svg">
<rect x="1" y="1" width="13.6364" height="11.5556" stroke="#EE0033" stroke-width="2" stroke-linecap="round" stroke-linejoin="round"/>
<path fill-rule="evenodd" clip-rule="evenodd" d="M14.6364 5.44446H18.2727L21 8.11112V12.5556H14.6364V5.44446V5.44446Z" stroke="#EE0033" stroke-width="2" stroke-linecap="round" stroke-linejoin="round"/>
<path fill-rule="evenodd" clip-rule="evenodd" d="M5.09091 17C6.3461 17 7.36364 16.0051 7.36364 14.7778C7.36364 13.5505 6.3461 12.5555 5.09091 12.5555C3.83572 12.5555 2.81818 13.5505 2.81818 14.7778C2.81818 16.0051 3.83572 17 5.09091 17Z" stroke="#EE0033" stroke-width="2" stroke-linecap="round" stroke-linejoin="round"/>
<path fill-rule="evenodd" clip-rule="evenodd" d="M16.9091 17C18.1643 17 19.1818 16.0051 19.1818 14.7778C19.1818 13.5505 18.1643 12.5555 16.9091 12.5555C15.6539 12.5555 14.6364 13.5505 14.6364 14.7778C14.6364 16.0051 15.6539 17 16.9091 17Z" stroke="#EE0033" stroke-width="2" stroke-linecap="round" stroke-linejoin="round"/>
</svg>
